<svg width="115" height="90" viewBox="0 0 115 90" fill="none" xmlns="http://www.w3.org/2000/svg"><path d="M76.252 6.889a8.716 8.716 0 0 0-6.957 3.457 5.739 5.739 0 0 0-7.317 2.546 5.73 5.73 0 0 0-.687 2.719h23.688a8.718 8.718 0 0 0-5.388-8.058 8.731 8.731 0 0 0-3.34-.664Z" fill="#E6E6E6"/><path d="M108.974.854H5.302A5.239 5.239 0 0 0 .072 6.08v77.788a5.233 5.233 0 0 0 5.23 5.227h103.672a5.237 5.237 0 0 0 5.229-5.227V6.08a5.237 5.237 0 0 0-5.229-5.227Zm4.614 83.014a4.614 4.614 0 0 1-4.614 4.612H5.302a4.622 4.622 0 0 1-4.614-4.612V6.08a4.616 4.616 0 0 1 4.614-4.612h103.672a4.621 4.621 0 0 1 4.614 4.612v77.788Z" fill="#BDBDBD"/><path d="M80.21 56.811c12.828 0 23.226-10.392 23.226-23.213 0-12.82-10.399-23.213-23.226-23.213S56.984 20.778 56.984 33.598 67.383 56.811 80.21 56.811Z" fill="#95BDF4"/><path d="M113.661 65.898c.353.504.542 1.105.542 1.72v2.49a3 3 0 0 1-3 3H3.073a3 3 0 0 1-3-3v-2.526a3 3 0 0 1 .536-1.712l.079-.114L36.87 13.682a1.781 1.781 0 0 1 2.929 0L61.613 45.07c1.19 1.713 3.722 1.719 4.92.01l14.806-21.12a1.783 1.783 0 0 1 2.923 0l29.326 41.833.073.105ZM25.143 80.486H6.993a.307.307 0 0 1 0-.615h18.15a.308.308 0 1 1 0 .615Zm27.379 0H34.373a.306.306 0 0 1-.308-.307.306.306 0 0 1 .308-.308h18.15a.307.307 0 1 1 0 .615Zm27.379 0H61.752a.307.307 0 0 1 0-.615h18.15a.308.308 0 1 1 0 .615Zm27.38 0h-18.15a.307.307 0 0 1 0-.615h18.15a.306.306 0 0 1 .307.308.306.306 0 0 1-.307.307Z" fill="#828282"/><path d="M100.183 57.791c6.228-5.633 8.441-13.332 4.942-17.196-3.498-3.863-11.383-2.428-17.611 3.205-6.228 5.633-8.441 13.332-4.943 17.196 3.499 3.863 11.384 2.428 17.612-3.205Z" fill="#E6E6E6"/><path d="M82.062 73.213c-.84-1.734-1.137-3.688-.99-5.601.158-1.9.719-3.746 1.645-5.414.885-1.617 2.054-3.064 3.383-4.336 1.41-1.35 3.001-2.497 4.675-3.5 1.767-1.057 3.623-1.956 5.502-2.797.234-.105.468-.21.703-.313.154-.067.021-.293-.132-.226-1.915.843-3.814 1.731-5.63 2.773-1.735.996-3.395 2.135-4.878 3.48-1.383 1.256-2.616 2.693-3.572 4.301a14.052 14.052 0 0 0-1.894 5.392c-.245 1.922-.055 3.92.674 5.723.088.22.185.437.288.65.073.152.3.02.226-.132Z" fill="#CCC"/><path d="M89.296 55.032c-.087-1.43.02-2.864.32-4.264a16.09 16.09 0 0 1 1.438-4.029c.37-.714.793-1.4 1.267-2.05.1-.136-.128-.267-.226-.132a16.085 16.085 0 0 0-2.049 3.81 16.356 16.356 0 0 0-.972 4.218c-.076.813-.09 1.631-.04 2.447.01.167.272.168.262 0Z" fill="#CCC"/><path d="M15.447 68.158c-1.974-1.785-2.675-4.224-1.566-5.448 1.108-1.224 3.606-.77 5.58 1.015 1.973 1.785 2.674 4.224 1.565 5.448-1.108 1.224-3.606.77-5.58-1.015Z" fill="#E6E6E6"/><path d="M21.186 73.043a3.47 3.47 0 0 0 .314-1.775 4.263 4.263 0 0 0-.521-1.715 5.72 5.72 0 0 0-1.072-1.374 8.279 8.279 0 0 0-1.481-1.108c-.56-.335-1.148-.62-1.743-.887a36.834 36.834 0 0 0-.223-.099c-.049-.021-.007-.093.042-.071a18.7 18.7 0 0 1 1.784.878c.55.316 1.075.677 1.545 1.103a5.99 5.99 0 0 1 1.132 1.362c.315.523.519 1.104.6 1.709a3.633 3.633 0 0 1-.214 1.813c-.028.07-.058.138-.091.206-.023.048-.095.006-.072-.042Z" fill="#CCC"/><path d="M18.895 67.284a5.098 5.098 0 0 0-.959-3.277c-.031-.043.041-.084.072-.042.27.372.488.778.65 1.207a5.182 5.182 0 0 1 .32 2.112c-.003.053-.086.053-.083 0Z" fill="#CCC"/><path d="M20.316 63.196c-3.925-3.55-5.32-8.403-3.115-10.838 2.205-2.435 7.175-1.53 11.1 2.02 3.926 3.55 5.32 8.403 3.116 10.838-2.206 2.435-7.175 1.53-11.1-2.02Z" fill="#E6E6E6"/><path d="M31.738 72.914c.529-1.093.716-2.325.624-3.53a8.48 8.48 0 0 0-1.037-3.413c-.558-1.019-1.295-1.93-2.132-2.733-.89-.851-1.892-1.574-2.947-2.205-1.113-.667-2.284-1.234-3.468-1.764a76.457 76.457 0 0 0-.443-.197c-.097-.042-.013-.185.084-.142 1.207.53 2.404 1.09 3.548 1.748 1.094.627 2.14 1.345 3.074 2.193.872.792 1.65 1.697 2.252 2.71a8.857 8.857 0 0 1 1.193 3.4c.155 1.21.035 2.47-.424 3.606a6.742 6.742 0 0 1-.182.41c-.046.096-.189.012-.142-.083Z" fill="#CCC"/><path d="M27.178 61.456a9.978 9.978 0 0 0-.201-2.687 10.144 10.144 0 0 0-.907-2.54c-.233-.45-.5-.882-.798-1.291-.063-.087.08-.169.142-.084a10.16 10.16 0 0 1 1.292 2.402c.32.855.527 1.749.612 2.658.049.513.057 1.028.026 1.542-.007.106-.172.106-.166 0Z" fill="#CCC"/><path d="M39.206 65.684c3.08-2.787 4.175-6.595 2.445-8.505-1.73-1.912-5.63-1.202-8.71 1.584-3.081 2.787-4.176 6.595-2.445 8.506 1.73 1.91 5.63 1.201 8.71-1.585Z" fill="#E6E6E6"/><path d="M30.244 73.312c-.415-.858-.562-1.824-.49-2.77.078-.94.356-1.853.814-2.678a8.928 8.928 0 0 1 1.673-2.145 12.92 12.92 0 0 1 2.312-1.73c.874-.524 1.793-.968 2.722-1.384.116-.052.231-.104.348-.155.076-.033.01-.145-.066-.112-.947.417-1.886.856-2.785 1.372-.858.492-1.679 1.056-2.412 1.721a9.348 9.348 0 0 0-1.767 2.127 6.95 6.95 0 0 0-.936 2.667c-.122.95-.028 1.939.333 2.83.044.11.091.217.142.322.037.075.148.01.112-.065Z" fill="#CCC"/><path d="M33.822 64.32a7.825 7.825 0 0 1 .158-2.108 7.826 7.826 0 0 1 1.338-3.007c.049-.068-.064-.132-.112-.066a7.959 7.959 0 0 0-1.014 1.885 8.09 8.09 0 0 0-.48 2.086 7.822 7.822 0 0 0-.02 1.21c.005.083.135.084.13 0ZM57.6 21.455a10.754 10.754 0 0 0-8.584 4.266 7.08 7.08 0 0 0-9.027 3.14 7.07 7.07 0 0 0-.847 3.355h29.224a10.758 10.758 0 0 0-6.646-9.942 10.772 10.772 0 0 0-4.12-.819ZM23.736 10.232a10.754 10.754 0 0 0-8.583 4.266 7.081 7.081 0 0 0-9.027 3.14 7.07 7.07 0 0 0-.848 3.356h29.225a10.756 10.756 0 0 0-6.646-9.942 10.773 10.773 0 0 0-4.12-.82Z" fill="#CCC"/></svg>